<?xml version="1.0" encoding="utf-8"?>
<svg xmlns="http://www.w3.org/2000/svg" style="margin: auto; background: rgb(241, 242, 243) none repeat scroll 0% 0%; display: block; shape-rendering: auto;" width="280" height="250" preserveAspectRatio="xMidYMid">
<style type="text/css">
  text {
    text-anchor: middle; font-size: 80px; opacity: 0;
  }
</style>
<g style="transform-origin:140px 125px;transform:scale(1)">
<g transform="translate(140,125)">
  <g transform="translate(0,0)"><g class="path" style="transform: scale(0.91); transform-origin: -110.043px -6.08789px 0px; animation: 1.5625s linear -0.859375s infinite normal forwards running breath-a5b0acd5-e726-4e7f-a3a1-d5e63fd5ef8a;"><path d="M1.04-7.28L7.28-15.92L7.28-15.92Q14.08-9.12 20.88-9.12L20.88-9.12L20.88-9.12Q24.40-9.12 26.52-10.76L26.52-10.76L26.52-10.76Q28.64-12.40 28.64-15L28.64-15L28.64-15Q28.64-17.60 26.08-19.40L26.08-19.40L26.08-19.40Q23.52-21.20 19.88-22.56L19.88-22.56L19.88-22.56Q16.24-23.92 12.64-25.64L12.64-25.64L12.64-25.64Q9.04-27.36 6.48-30.56L6.48-30.56L6.48-30.56Q3.92-33.76 3.92-38.32L3.92-38.32L3.92-38.32Q3.92-45.52 9.92-50.76L9.92-50.76L9.92-50.76Q15.92-56 24.16-56L24.16-56L24.16-56Q27.92-56 31.44-55.20L31.44-55.20L31.44-55.20Q34.96-54.40 38.24-52.88L38.24-52.88L32.80-41.20L32.80-41.20Q30.56-42.96 26.68-44.44L26.68-44.44L26.68-44.44Q22.80-45.92 19.88-45.92L19.88-45.92L19.88-45.92Q16.96-45.92 15.16-44.52L15.16-44.52L15.16-44.52Q13.36-43.12 13.36-40.80L13.36-40.80L13.36-40.80Q13.36-38.48 15.92-36.68L15.92-36.68L15.92-36.68Q18.48-34.88 22.12-33.52L22.12-33.52L22.12-33.52Q25.76-32.16 29.40-30.52L29.40-30.52L29.40-30.52Q33.04-28.88 35.60-25.68L35.60-25.68L35.60-25.68Q38.16-22.48 38.16-17.92L38.16-17.92L38.16-17.92Q38.16-10.40 32.16-4.76L32.16-4.76L32.16-4.76Q26.16 0.88 18.16 0.88L18.16 0.88L18.16 0.88Q12.16 0.88 7.52-2L7.52-2L7.52-2Q3.44-4.48 1.76-6.40L1.76-6.40L1.04-7.28" fill="#1d3f72" stroke="none" stroke-width="none" transform="translate(-129.68334197998047,21.473165893554686)" style="fill: rgb(29, 63, 114);"></path></g><g class="path" style="transform: scale(0.91); transform-origin: -61.8438px -6.32617px 0px; animation: 1.5625s linear -0.6875s infinite normal forwards running breath-a5b0acd5-e726-4e7f-a3a1-d5e63fd5ef8a;"><path d="M77.68-53.60L89.04-55.60L87.92-20.80L88.88 0L77.68 0L78.64-19.44L78.48-23.68L56.96-23.68L56.88-20.80L57.84 0L46.64 0L47.60-19.44L46.64-53.60L58-55.60L57.20-32.16L78.24-32.16L77.68-53.60" fill="#1d3f72" stroke="none" stroke-width="none" transform="translate(-129.68334197998047,21.473165893554686)" style="fill: rgb(86, 153, 210);"></path></g><g class="path" style="transform: scale(0.91); transform-origin: -8.52344px -6.16602px 0px; animation: 1.5625s linear -0.515625s infinite normal forwards running breath-a5b0acd5-e726-4e7f-a3a1-d5e63fd5ef8a;"><path d="M145.68-1.36L134.16 0.40L130.24-15.20L111.12-15.20L106.88 0L96.64-0.80L103.68-20.24L114.40-54.64L128.72-55.68L139.04-21.44L145.68-1.36zM127.84-23.68L121.52-45.28L120.48-45.28L113.60-23.68L127.84-23.68" fill="#1d3f72" stroke="none" stroke-width="none" transform="translate(-129.68334197998047,21.473165893554686)" style="fill: rgb(216, 235, 249);"></path></g><g class="path" style="transform: scale(0.91); transform-origin: 43.6777px -5.88672px 0px; animation: 1.5625s linear -0.34375s infinite normal forwards running breath-a5b0acd5-e726-4e7f-a3a1-d5e63fd5ef8a;"><path d="M153.28-53.60L164.64-55.60L163.76-29.52L184.16-55.44L192.32-50L173.92-28.64L193.44-5.52L183.20 0.88L163.68-26.72L163.52-20.80L164.48 0L153.28 0L154.24-19.44L153.28-53.60" fill="#1d3f72" stroke="none" stroke-width="none" transform="translate(-129.68334197998047,21.473165893554686)" style="fill: rgb(113, 194, 204);"></path></g><g class="path" style="transform: scale(0.91); transform-origin: 75.5156px -6.32617px 0px; animation: 1.5625s linear -0.171875s infinite normal forwards running breath-a5b0acd5-e726-4e7f-a3a1-d5e63fd5ef8a;"><path d="M199.52-53.60L210.88-55.60L209.76-20.80L210.72 0L199.52 0L200.48-19.44L199.52-53.60" fill="#1d3f72" stroke="none" stroke-width="none" transform="translate(-129.68334197998047,21.473165893554686)" style="fill: rgb(73, 150, 162);"></path></g><g class="path" style="transform: scale(0.91); transform-origin: 112.355px -5.6875px 0px; animation: 1.5625s linear 0s infinite normal forwards running breath-a5b0acd5-e726-4e7f-a3a1-d5e63fd5ef8a;"><path d="M223.68-55.20L241.04-55.20L241.04-55.20Q248.72-55.20 253.20-51.72L253.20-51.72L253.20-51.72Q257.68-48.24 257.68-42.40L257.68-42.40L257.68-42.40Q257.68-33.04 250-29.36L250-29.36L250-29.36Q260.40-25.76 260.40-16.08L260.40-16.08L260.40-16.08Q260.40-8.80 254.16-3.96L254.16-3.96L254.16-3.96Q247.92 0.88 238.48 0.88L238.48 0.88L238.48 0.88Q233.52 0.88 223.68 0L223.68 0L224.64-19.44L223.68-55.20zM240-23.76L240-23.76L233.52-23.76L233.44-20.80L234-7.76L234-7.76Q238.64-7.36 241.12-7.36L241.12-7.36L241.12-7.36Q245.36-7.36 247.72-9.48L247.72-9.48L247.72-9.48Q250.08-11.60 250.08-15.68L250.08-15.68L250.08-15.68Q250.08-19.76 247.68-21.76L247.68-21.76L247.68-21.76Q245.28-23.76 240-23.76zM238.16-47.12L238.16-47.12L234.24-47.12L233.76-31.52L238.96-31.52L238.96-31.52Q243.04-31.52 245.20-33.72L245.20-33.72L245.20-33.72Q247.36-35.92 247.36-40L247.36-40L247.36-40Q247.36-47.12 238.16-47.12" fill="#1d3f72" stroke="none" stroke-width="none" transform="translate(-129.68334197998047,21.473165893554686)" style="fill: rgb(120, 84, 113);"></path></g></g>
</g>
</g>
<style id="breath-a5b0acd5-e726-4e7f-a3a1-d5e63fd5ef8a" data-anikit="">@keyframes breath-a5b0acd5-e726-4e7f-a3a1-d5e63fd5ef8a
{
  0% {
    animation-timing-function: cubic-bezier(0.9647,0.2413,-0.0705,0.7911);
    transform: scale(0.9099999999999999);
  }
  51% {
    animation-timing-function: cubic-bezier(0.9226,0.2631,-0.0308,0.7628);
    transform: scale(1.02994);
  }
  100% {
    transform: scale(0.9099999999999999);
  }
}</style></svg>